<?xml version="1.0" encoding="utf-8"?>
<!-- Generator: Adobe Illustrator 24.2.3, SVG Export Plug-In . SVG Version: 6.00 Build 0)  -->
<svg version="1.1" xmlns="http://www.w3.org/2000/svg" xmlns:xlink="http://www.w3.org/1999/xlink" x="0px" y="0px"
	 viewBox="0 0 30 30" style="enable-background:new 0 0 30 30;" xml:space="preserve">
<style type="text/css">
	.st0{fill:#FFDC00;}
	.st1{fill:#00FFFF;}
	.st2{fill:none;stroke:#323232;stroke-width:0.3;stroke-miterlimit:10;}
	.st3{fill:none;stroke:#323232;stroke-width:0.3;stroke-miterlimit:10;stroke-dasharray:0.7512,0.7512;}
	.st4{fill:none;stroke:#323232;stroke-width:0.3;stroke-miterlimit:10;stroke-dasharray:0.7476,0.7476;}
	.st5{fill:none;stroke:#323232;stroke-width:0.3;stroke-miterlimit:10;stroke-dasharray:0.75;}
	.st6{fill:none;stroke:#323232;stroke-width:0.3;stroke-miterlimit:10;stroke-dasharray:0.7489,0.7489;}
	.st7{fill:none;stroke:#1E1E1E;stroke-width:0.5;}
	.st8{fill:#3C1E1E;}
	.st9{fill:#1E1E1E;}
	.st10{fill:none;stroke:#323232;stroke-width:0.3;stroke-miterlimit:10;stroke-dasharray:0.7508,0.7508;}
	.st11{fill:none;stroke:#323232;stroke-width:0.3;stroke-miterlimit:10;stroke-dasharray:0.749,0.749;}
	.st12{fill:none;stroke:#323232;stroke-width:0.3;stroke-miterlimit:10;stroke-dasharray:0.7507,0.7507;}
	.st13{fill:none;stroke:#323232;stroke-width:0.3;stroke-miterlimit:10;stroke-dasharray:0.7422,0.7422;}
	.st14{fill:none;stroke:#323232;stroke-width:0.3;stroke-miterlimit:10;stroke-dasharray:0.7462,0.7462;}
	.st15{fill:#FFFFFF;}
	.st16{fill:#00C63B;}
	.st17{fill:#3A5CA9;}
</style>
<g id="guide">
	<g>
		<g>
			<rect x="373.42" y="71.31" class="st0" width="74.12" height="73.89"/>
			<path class="st1" d="M447.04,71.81v72.89h-73.12V71.81H447.04 M448.04,70.81h-75.12v74.89h75.12V70.81L448.04,70.81z"/>
		</g>
		<g>
			<g>
				<line class="st2" x1="372.92" y1="81.3" x2="373.3" y2="81.3"/>
				<line class="st3" x1="374.05" y1="81.3" x2="447.29" y2="81.3"/>
				<line class="st2" x1="447.67" y1="81.3" x2="448.04" y2="81.3"/>
			</g>
		</g>
		<g>
			<g>
				<line class="st2" x1="372.92" y1="70.81" x2="373.3" y2="70.81"/>
				<line class="st3" x1="374.05" y1="70.81" x2="447.29" y2="70.81"/>
				<line class="st2" x1="447.67" y1="70.81" x2="448.04" y2="70.81"/>
			</g>
		</g>
		<g>
			<g>
				<line class="st2" x1="372.92" y1="135.34" x2="373.3" y2="135.34"/>
				<line class="st3" x1="374.05" y1="135.34" x2="447.29" y2="135.34"/>
				<line class="st2" x1="447.67" y1="135.34" x2="448.04" y2="135.34"/>
			</g>
		</g>
		<g>
			<g>
				<line class="st2" x1="382.44" y1="145.58" x2="382.44" y2="145.2"/>
				<line class="st4" x1="382.44" y1="144.45" x2="382.44" y2="71.56"/>
				<line class="st2" x1="382.44" y1="71.19" x2="382.44" y2="70.81"/>
			</g>
		</g>
		<g>
			<g>
				<line class="st2" x1="438" y1="145.58" x2="438" y2="145.2"/>
				<line class="st4" x1="438" y1="144.45" x2="438" y2="71.56"/>
				<line class="st2" x1="438" y1="71.19" x2="438" y2="70.81"/>
			</g>
		</g>
		<g>
			<g>
				<line class="st2" x1="372.92" y1="145.71" x2="373.3" y2="145.71"/>
				<line class="st3" x1="374.05" y1="145.71" x2="447.29" y2="145.71"/>
				<line class="st2" x1="447.67" y1="145.71" x2="448.04" y2="145.71"/>
			</g>
		</g>
		<line class="st5" x1="448.04" y1="145.71" x2="448.04" y2="70.81"/>
		<g>
			<g>
				<line class="st2" x1="372.92" y1="145.71" x2="372.92" y2="145.33"/>
				<line class="st6" x1="372.92" y1="144.58" x2="372.92" y2="71.56"/>
				<line class="st2" x1="372.92" y1="71.19" x2="372.92" y2="70.81"/>
			</g>
		</g>
	</g>
	<text transform="matrix(1 0 0 1 366.9651 -37.1758)" class="st9" style="font-family:'KakaoOTF-bRg'; font-size:16px;">상담톡 버튼: 카카오톡 심볼 사용 가이드</text>
	<line class="st7" x1="366.88" y1="-30.79" x2="1123.73" y2="-30.79"/>
	<text transform="matrix(1 0 0 1 372.9228 35.362)" class="st9" style="font-family:'KakaoOTF-bRg'; font-size:15px;">symbol</text>
	<text transform="matrix(1 0 0 1 591.569 35.362)" class="st9" style="font-family:'KakaoOTF-bRg'; font-size:15px;">PC 최소 사이즈</text>
	<g>
		<text transform="matrix(1 0 0 1 832.2694 35.3622)" class="st9" style="font-family:'KakaoOTF-bRg'; font-size:15px;">mobile 최소 사이즈</text>
	</g>
	<text transform="matrix(1 0 0 1 372.9229 368.2712)" style="fill:#231F20; font-family:'KakaoOTF-bRg'; font-size:6px;">*주목도 확보를 위해, 파란색 선 안의 면적을 최소 여백으로 확보한다.</text>
</g>
<g id="colors">
	<g>
		<text transform="matrix(1 0 0 1 701.3811 448.7245)"><tspan x="0" y="0" class="st9" style="font-family:'KakaoOTF-bRg'; font-size:6px;">#3c1e1e</tspan><tspan x="0" y="7.2" class="st9" style="font-family:'KakaoOTF-bRg'; font-size:6px;">R60 G30 B30</tspan></text>
		<text transform="matrix(1 0 0 1 701.3812 437.8571)" class="st9" style="font-family:'KakaoOTF-cBd'; font-size:6px;">talk brown</text>
		<rect x="645.62" y="431.09" class="st8" width="50" height="25"/>
	</g>
	<g>
		<text transform="matrix(1 0 0 1 564.7866 448.7245)"><tspan x="0" y="0" class="st9" style="font-family:'KakaoOTF-bRg'; font-size:6px;">#1e1e1e</tspan><tspan x="0" y="7.2" class="st9" style="font-family:'KakaoOTF-bRg'; font-size:6px;">R30 G30 B30</tspan></text>
		<text transform="matrix(1 0 0 1 564.7867 437.8571)" class="st9" style="font-family:'KakaoOTF-cBd'; font-size:6px;">kakao black</text>
		<rect x="509.02" y="431.09" class="st9" width="50" height="25"/>
	</g>
	<g>
		<text transform="matrix(1 0 0 1 428.6862 448.7245)"><tspan x="0" y="0" class="st9" style="font-family:'KakaoOTF-bRg'; font-size:6px;">#ffdc00</tspan><tspan x="0" y="7.2" class="st9" style="font-family:'KakaoOTF-bRg'; font-size:6px;">R255 G220 B0</tspan></text>
		<g>
			<text transform="matrix(1 0 0 1 428.6863 437.8571)" class="st9" style="font-family:'KakaoOTF-cBd'; font-size:6px;">kakao yellow</text>
		</g>
		<rect x="372.92" y="431.09" class="st0" width="50" height="25"/>
	</g>
</g>
<g id="assets">
	<g>
		<g>
			<rect x="373.6" y="261.15" class="st9" width="74.12" height="73.89"/>
			<path class="st1" d="M447.22,261.65v72.89H374.1v-72.89H447.22 M448.22,260.65H373.1v74.89h75.12V260.65L448.22,260.65z"/>
		</g>
		<g>
			<g>
				<line class="st2" x1="373.1" y1="271.13" x2="373.47" y2="271.13"/>
				<line class="st3" x1="374.22" y1="271.13" x2="447.46" y2="271.13"/>
				<line class="st2" x1="447.84" y1="271.13" x2="448.22" y2="271.13"/>
			</g>
		</g>
		<g>
			<g>
				<line class="st2" x1="373.1" y1="325.18" x2="373.47" y2="325.18"/>
				<line class="st3" x1="374.22" y1="325.18" x2="447.46" y2="325.18"/>
				<line class="st2" x1="447.84" y1="325.18" x2="448.22" y2="325.18"/>
			</g>
		</g>
		<g>
			<g>
				<line class="st2" x1="382.62" y1="335.41" x2="382.62" y2="335.04"/>
				<line class="st4" x1="382.62" y1="334.29" x2="382.62" y2="261.4"/>
				<line class="st2" x1="382.62" y1="261.02" x2="382.62" y2="260.65"/>
			</g>
		</g>
		<g>
			<g>
				<line class="st2" x1="438.18" y1="335.41" x2="438.18" y2="335.04"/>
				<line class="st4" x1="438.18" y1="334.29" x2="438.18" y2="261.4"/>
				<line class="st2" x1="438.18" y1="261.02" x2="438.18" y2="260.65"/>
			</g>
		</g>
		<g>
			<g>
				<line class="st2" x1="373.1" y1="335.54" x2="373.47" y2="335.54"/>
				<line class="st3" x1="374.22" y1="335.54" x2="447.46" y2="335.54"/>
				<line class="st2" x1="447.84" y1="335.54" x2="448.22" y2="335.54"/>
			</g>
		</g>
		<line class="st5" x1="448.22" y1="335.54" x2="448.22" y2="260.65"/>
		<g>
			<g>
				<line class="st2" x1="373.1" y1="335.54" x2="373.1" y2="335.17"/>
				<line class="st6" x1="373.1" y1="334.42" x2="373.1" y2="261.4"/>
				<line class="st2" x1="373.1" y1="261.02" x2="373.1" y2="260.65"/>
			</g>
		</g>
		<g>
			<g>
				<line class="st2" x1="373.34" y1="260.65" x2="373.72" y2="260.65"/>
				<line class="st3" x1="374.47" y1="260.65" x2="447.71" y2="260.65"/>
				<line class="st2" x1="448.08" y1="260.65" x2="448.46" y2="260.65"/>
			</g>
		</g>
	</g>
	<g>
		<g>
			<rect x="829.27" y="68.81" class="st0" width="216" height="82"/>
		</g>
		<g>
			<g>
				<line class="st2" x1="1045.06" y1="169.1" x2="1045.06" y2="168.73"/>
				<line class="st10" x1="1045.06" y1="167.98" x2="1045.06" y2="70.75"/>
				<line class="st2" x1="1045.06" y1="70.37" x2="1045.06" y2="70"/>
			</g>
		</g>
		<g>
			<text transform="matrix(1 0 0 1 840.6995 176.9099)" class="st9" style="font-family:'KakaoOTF-bRg'; font-size:5px;">30</text>
		</g>
		<g>
			<g>
				<line class="st2" x1="829.57" y1="68.72" x2="829.94" y2="68.72"/>
				<line class="st11" x1="830.69" y1="68.72" x2="1044.52" y2="68.72"/>
				<line class="st2" x1="1044.89" y1="68.72" x2="1045.27" y2="68.72"/>
			</g>
		</g>
		<g>
			<g>
				<line class="st2" x1="829.57" y1="169.1" x2="829.94" y2="169.1"/>
				<line class="st12" x1="830.69" y1="169.1" x2="1043.52" y2="169.1"/>
				<line class="st2" x1="1043.89" y1="169.1" x2="1044.27" y2="169.1"/>
			</g>
		</g>
		<g>
			<g>
				<line class="st2" x1="858.87" y1="167.44" x2="858.87" y2="167.06"/>
				<line class="st10" x1="858.87" y1="166.31" x2="858.87" y2="69.08"/>
				<line class="st2" x1="858.87" y1="68.71" x2="858.87" y2="68.33"/>
			</g>
		</g>
		<g>
			<g>
				<line class="st2" x1="829.07" y1="167.44" x2="829.07" y2="167.06"/>
				<line class="st10" x1="829.07" y1="166.31" x2="829.07" y2="69.08"/>
				<line class="st2" x1="829.07" y1="68.71" x2="829.07" y2="68.33"/>
			</g>
		</g>
		<line class="st2" x1="829.08" y1="172.33" x2="829.08" y2="178.39"/>
		<line class="st2" x1="858.87" y1="172.33" x2="858.87" y2="178.39"/>
		<g>
			<text transform="matrix(1 0 0 1 1026.6995 176.9099)" class="st9" style="font-family:'KakaoOTF-bRg'; font-size:5px;">30</text>
		</g>
		<line class="st2" x1="1015.08" y1="172.33" x2="1015.08" y2="178.39"/>
		<line class="st2" x1="1044.87" y1="172.33" x2="1044.87" y2="178.39"/>
		<g>
			<g>
				<line class="st2" x1="1015.06" y1="169.1" x2="1015.06" y2="168.73"/>
				<line class="st10" x1="1015.06" y1="167.98" x2="1015.06" y2="70.75"/>
				<line class="st2" x1="1015.06" y1="70.37" x2="1015.06" y2="70"/>
			</g>
		</g>
		<g>
			<g>
				<line class="st2" x1="828.57" y1="150.72" x2="828.94" y2="150.72"/>
				<line class="st11" x1="829.69" y1="150.72" x2="1043.52" y2="150.72"/>
				<line class="st2" x1="1043.89" y1="150.72" x2="1044.27" y2="150.72"/>
			</g>
		</g>
		<g>
			<g>
				<line class="st2" x1="904.87" y1="167.44" x2="904.87" y2="167.06"/>
				<line class="st10" x1="904.87" y1="166.31" x2="904.87" y2="69.08"/>
				<line class="st2" x1="904.87" y1="68.71" x2="904.87" y2="68.33"/>
			</g>
		</g>
		<g>
			<g>
				<line class="st2" x1="914.87" y1="168.44" x2="914.87" y2="168.06"/>
				<line class="st10" x1="914.87" y1="167.31" x2="914.87" y2="70.08"/>
				<line class="st2" x1="914.87" y1="69.71" x2="914.87" y2="69.33"/>
			</g>
		</g>
		<g>
			<text transform="matrix(1 0 0 1 906.5931 175.9099)" class="st9" style="font-family:'KakaoOTF-bRg'; font-size:5px;">10</text>
		</g>
		<line class="st2" x1="904.87" y1="171.33" x2="904.87" y2="177.39"/>
		<line class="st2" x1="914.87" y1="171.33" x2="914.87" y2="177.39"/>
		<g>
			<g>
				<line class="st2" x1="829.57" y1="89" x2="829.94" y2="89"/>
				<line class="st11" x1="830.69" y1="89" x2="1044.52" y2="89"/>
				<line class="st2" x1="1044.89" y1="89" x2="1045.27" y2="89"/>
			</g>
		</g>
		<g>
			<g>
				<line class="st2" x1="829.57" y1="131" x2="829.94" y2="131"/>
				<line class="st11" x1="830.69" y1="131" x2="1044.52" y2="131"/>
				<line class="st2" x1="1044.89" y1="131" x2="1045.27" y2="131"/>
			</g>
		</g>
		<g>
			<text transform="matrix(1.0936 0 0 1 1048.0219 80.6496)" class="st9" style="font-family:'KakaoOTF-bRg'; font-size:5px;">20</text>
		</g>
		<line class="st2" x1="1055" y1="69.47" x2="1048.95" y2="69.47"/>
		<line class="st2" x1="1055" y1="89.26" x2="1048.95" y2="89.26"/>
		<g>
			<text transform="matrix(1.0936 0 0 1 1048.0219 142.6496)" class="st9" style="font-family:'KakaoOTF-bRg'; font-size:5px;">20</text>
		</g>
		<line class="st2" x1="1055" y1="131.47" x2="1048.95" y2="131.47"/>
		<line class="st2" x1="1055" y1="151.26" x2="1048.95" y2="151.26"/>
	</g>
	<g>
		<g>
			<rect x="590.61" y="68.81" class="st0" width="100" height="42"/>
		</g>
		<g>
			<g>
				<line class="st2" x1="691.01" y1="129.1" x2="691.01" y2="128.73"/>
				<line class="st13" x1="691.01" y1="127.99" x2="691.01" y2="70.46"/>
				<line class="st2" x1="691.01" y1="70.09" x2="691.01" y2="69.72"/>
			</g>
		</g>
		<g>
			<text transform="matrix(1 0 0 1 592.6264 136.9099)" class="st9" style="font-family:'KakaoOTF-bRg'; font-size:5px;">10</text>
		</g>
		<g>
			<g>
				<line class="st2" x1="591.52" y1="68.72" x2="591.89" y2="68.72"/>
				<line class="st14" x1="592.64" y1="68.72" x2="690.77" y2="68.72"/>
				<line class="st2" x1="691.14" y1="68.72" x2="691.52" y2="68.72"/>
			</g>
		</g>
		<g>
			<g>
				<line class="st2" x1="591.52" y1="129.1" x2="591.89" y2="129.1"/>
				<line class="st14" x1="592.64" y1="129.1" x2="690.77" y2="129.1"/>
				<line class="st2" x1="691.14" y1="129.1" x2="691.52" y2="129.1"/>
			</g>
		</g>
		<g>
			<g>
				<line class="st2" x1="600.82" y1="128.1" x2="600.82" y2="127.73"/>
				<line class="st13" x1="600.82" y1="126.99" x2="600.82" y2="69.46"/>
				<line class="st2" x1="600.82" y1="69.09" x2="600.82" y2="68.72"/>
			</g>
		</g>
		<g>
			<g>
				<line class="st2" x1="591.02" y1="128.1" x2="591.02" y2="127.73"/>
				<line class="st13" x1="591.02" y1="126.99" x2="591.02" y2="69.46"/>
				<line class="st2" x1="591.02" y1="69.09" x2="591.02" y2="68.72"/>
			</g>
		</g>
		<line class="st2" x1="591.03" y1="132.33" x2="591.03" y2="138.39"/>
		<line class="st2" x1="600.82" y1="132.33" x2="600.82" y2="138.39"/>
		<g>
			<text transform="matrix(1 0 0 1 682.6264 136.9099)" class="st9" style="font-family:'KakaoOTF-bRg'; font-size:5px;">10</text>
		</g>
		<line class="st2" x1="681.03" y1="132.33" x2="681.03" y2="138.39"/>
		<line class="st2" x1="690.82" y1="132.33" x2="690.82" y2="138.39"/>
		<g>
			<g>
				<line class="st2" x1="681.01" y1="129.1" x2="681.01" y2="128.73"/>
				<line class="st13" x1="681.01" y1="127.99" x2="681.01" y2="70.46"/>
				<line class="st2" x1="681.01" y1="70.09" x2="681.01" y2="69.72"/>
			</g>
		</g>
		<g>
			<g>
				<line class="st2" x1="590.52" y1="110.72" x2="590.89" y2="110.72"/>
				<line class="st14" x1="591.64" y1="110.72" x2="689.77" y2="110.72"/>
				<line class="st2" x1="690.14" y1="110.72" x2="690.52" y2="110.72"/>
			</g>
		</g>
		<g>
			<g>
				<line class="st2" x1="590.52" y1="78.72" x2="590.89" y2="78.72"/>
				<line class="st14" x1="591.64" y1="78.72" x2="689.77" y2="78.72"/>
				<line class="st2" x1="690.14" y1="78.72" x2="690.52" y2="78.72"/>
			</g>
		</g>
		<g>
			<g>
				<line class="st2" x1="590.52" y1="100.72" x2="590.89" y2="100.72"/>
				<line class="st14" x1="591.64" y1="100.72" x2="689.77" y2="100.72"/>
				<line class="st2" x1="690.14" y1="100.72" x2="690.52" y2="100.72"/>
			</g>
		</g>
		<g>
			<g>
				<line class="st2" x1="627.82" y1="128.1" x2="627.82" y2="127.73"/>
				<line class="st13" x1="627.82" y1="126.99" x2="627.82" y2="69.46"/>
				<line class="st2" x1="627.82" y1="69.09" x2="627.82" y2="68.72"/>
			</g>
		</g>
		<g>
			<g>
				<line class="st2" x1="622.02" y1="128.1" x2="622.02" y2="127.73"/>
				<line class="st13" x1="622.02" y1="126.99" x2="622.02" y2="69.46"/>
				<line class="st2" x1="622.02" y1="69.09" x2="622.02" y2="68.72"/>
			</g>
		</g>
		<g>
			<text transform="matrix(1 0 0 1 623.2636 136.9099)" class="st9" style="font-family:'KakaoOTF-bRg'; font-size:5px;">6</text>
		</g>
		<line class="st2" x1="622.03" y1="132.33" x2="622.03" y2="138.39"/>
		<line class="st2" x1="627.82" y1="132.33" x2="627.82" y2="138.39"/>
		<g>
			<text transform="matrix(1.0936 0 0 1 693.0218 74.6496)" class="st9" style="font-family:'KakaoOTF-bRg'; font-size:5px;">10</text>
		</g>
		<line class="st2" x1="700" y1="68.47" x2="693.95" y2="68.47"/>
		<line class="st2" x1="700" y1="78.26" x2="693.95" y2="78.26"/>
		<g>
			<text transform="matrix(1.0936 0 0 1 693.0218 106.6496)" class="st9" style="font-family:'KakaoOTF-bRg'; font-size:5px;">10</text>
		</g>
		<line class="st2" x1="700" y1="100.47" x2="693.95" y2="100.47"/>
		<line class="st2" x1="700" y1="110.26" x2="693.95" y2="110.26"/>
	</g>
	<g>
		<path class="st8" d="M410.26,84.12c-14.6,0-26.44,9.35-26.44,20.89c0,7.42,4.9,13.93,12.27,17.64l-2.49,9.31
			c-0.09,0.28-0.02,0.58,0.18,0.78c0.15,0.15,0.34,0.22,0.54,0.22c0.17,0,0.33-0.05,0.47-0.16l10.72-7.24
			c1.54,0.22,3.13,0.34,4.75,0.34c14.6,0,26.44-9.35,26.44-20.89C436.71,93.47,424.87,84.12,410.26,84.12z M396.92,110.54
			c0,0.82-0.48,1.32-1.27,1.32c-0.78,0-1.26-0.51-1.26-1.32v-9.19h-2.66c-0.83,0-1.13-0.62-1.13-1.15c0-0.56,0.4-1.15,1.13-1.15
			h7.85c0.74,0,1.13,0.59,1.13,1.15c0,0.53-0.3,1.15-1.13,1.15h-2.66V110.54z M409.15,111.86c-0.63,0-1.04-0.29-1.23-0.88
			l-0.55-1.73h-5.29l-0.57,1.71c-0.2,0.61-0.58,0.9-1.22,0.9c-0.7,0-1.24-0.51-1.24-1.17c0-0.26,0.08-0.46,0.12-0.56l3.67-9.73
			c0.26-0.71,0.9-1.47,1.88-1.47c0.87,0,1.55,0.54,1.88,1.47l3.56,9.71c0.11,0.3,0.14,0.55,0.14,0.65
			C410.31,111.38,409.8,111.86,409.15,111.86z M417.66,111.72h-4.71c-0.83,0-1.32-0.52-1.32-1.4v-10.06c0-0.81,0.48-1.32,1.27-1.32
			c0.78,0,1.26,0.51,1.26,1.32v9.16h3.51c0.38,0,0.69,0.12,0.91,0.35c0.21,0.22,0.32,0.53,0.3,0.85
			C418.86,111.16,418.43,111.72,417.66,111.72z M428.14,111.86c-0.07,0-0.13,0-0.2-0.01c-0.47-0.05-0.73-0.34-1.22-1l-3.32-4.53
			l-0.91,0.93v3.41c0,0.69-0.54,1.21-1.26,1.21c-0.76,0-1.27-0.49-1.27-1.21v-10.47c0-0.72,0.53-1.25,1.27-1.25
			c0.76,0,1.26,0.5,1.26,1.25v4.05l4.46-4.64c0.2-0.2,0.52-0.46,1.01-0.46c0.61,0.02,1.23,0.42,1.21,1.17
			c0,0.35-0.21,0.58-0.62,1.03c-0.09,0.1-0.2,0.22-0.31,0.35l-3.04,3.07l3.6,4.72c0.37,0.49,0.68,0.89,0.61,1.4
			C429.31,111.79,428.41,111.86,428.14,111.86z"/>
		<path class="st8" d="M404.7,101.26l-1.91,5.76h3.86l-1.91-5.76C404.74,101.23,404.71,101.23,404.7,101.26z"/>
	</g>
	<g>
		<path class="st8" d="M611.45,79.65c-6.08,0-11,3.89-11,8.69c0,3.09,2.04,5.8,5.11,7.34l-1.04,3.87c-0.04,0.11-0.01,0.24,0.08,0.32
			c0.06,0.06,0.14,0.09,0.22,0.09c0.07,0,0.14-0.02,0.2-0.07l4.46-3.01c0.64,0.09,1.3,0.14,1.98,0.14c6.08,0,11-3.89,11-8.69
			C622.45,83.55,617.53,79.65,611.45,79.65z M605.9,90.65c0,0.34-0.2,0.55-0.53,0.55c-0.32,0-0.53-0.21-0.53-0.55v-3.82h-1.11
			c-0.35,0-0.47-0.26-0.47-0.48c0-0.23,0.16-0.48,0.47-0.48h3.27c0.31,0,0.47,0.25,0.47,0.48c0,0.22-0.12,0.48-0.47,0.48h-1.11
			V90.65z M610.99,91.2c-0.26,0-0.43-0.12-0.51-0.37l-0.23-0.72h-2.2l-0.24,0.71c-0.08,0.26-0.24,0.37-0.51,0.37
			c-0.29,0-0.52-0.21-0.52-0.49c0-0.11,0.03-0.19,0.05-0.23l1.53-4.05c0.11-0.3,0.37-0.61,0.78-0.61c0.36,0,0.65,0.22,0.78,0.61
			l1.48,4.04c0.05,0.13,0.06,0.23,0.06,0.27C611.47,91,611.26,91.2,610.99,91.2z M614.53,91.14h-1.96c-0.34,0-0.55-0.22-0.55-0.58
			v-4.19c0-0.34,0.2-0.55,0.53-0.55c0.32,0,0.53,0.21,0.53,0.55v3.81h1.46c0.16,0,0.29,0.05,0.38,0.15
			c0.09,0.09,0.13,0.22,0.12,0.35C615.03,90.9,614.85,91.14,614.53,91.14z M618.89,91.2c-0.03,0-0.05,0-0.08,0
			c-0.19-0.02-0.3-0.14-0.51-0.42l-1.38-1.88l-0.38,0.39v1.42c0,0.29-0.23,0.5-0.53,0.5c-0.32,0-0.53-0.2-0.53-0.5v-4.36
			c0-0.3,0.22-0.52,0.53-0.52c0.31,0,0.53,0.21,0.53,0.52v1.69l1.85-1.93c0.08-0.08,0.22-0.19,0.42-0.19
			c0.25,0.01,0.51,0.18,0.5,0.49c0,0.14-0.09,0.24-0.26,0.43c-0.04,0.04-0.08,0.09-0.13,0.14l-1.27,1.28l1.5,1.96
			c0.15,0.2,0.28,0.37,0.26,0.58C619.37,91.17,619,91.2,618.89,91.2z"/>
		<path class="st8" d="M609.14,86.78l-0.79,2.39h1.61l-0.79-2.39C609.15,86.77,609.14,86.77,609.14,86.78z"/>
	</g>
	<g>
		<path class="st8" d="M635.17,90.93c-1.26-0.58-2.58-1.73-3.17-3.09c-0.42,1.47-1.84,2.79-3.36,3.51l-0.86-1.12
			c2-0.85,3.47-2.53,3.47-4.74v-1.33h1.44v1.28c0,2.21,1.71,3.83,3.31,4.37L635.17,90.93z M634.33,97.49
			c-2.96,0-4.72-1.04-4.72-2.74c0-1.68,1.76-2.74,4.72-2.74c2.96,0,4.72,1.06,4.72,2.74C639.06,96.45,637.3,97.49,634.33,97.49z
			 M631.09,94.76c0,0.99,1.23,1.58,3.25,1.58c2.02,0,3.27-0.59,3.27-1.58c0-0.99-1.25-1.57-3.27-1.57
			C632.32,93.19,631.09,93.77,631.09,94.76z M638.86,88.34v3.7h-1.42V83.5h1.42v3.67h2.08v1.17H638.86z"/>
		<path class="st8" d="M649.84,88.95l0.21,1.1c-1.47,0.3-3.75,0.48-6.21,0.5h-1.42v-6.07h6.31v1.17h-4.9v3.76
			C645.92,89.41,648.35,89.25,649.84,88.95z M643.84,97.3v-5.15h8.87v5.15H643.84z M651.3,93.27h-6.05v2.9h6.05V93.27z M652.7,88.11
			v3.3h-1.42V83.5h1.42v3.44h2.08v1.17H652.7z"/>
		<path class="st8" d="M655.66,87.97v-1.14h8.29v1.14H655.66z M659.87,94.65c-1.98,0-3.31-1.25-3.31-2.93
			c0-1.65,1.33-2.96,3.31-2.96s3.3,1.28,3.3,2.96C663.17,93.36,661.85,94.65,659.87,94.65z M657.74,85.57v-1.15h4.18v1.15H657.74z
			 M659.87,89.94c-1.09,0-1.89,0.74-1.89,1.78c0,1.02,0.78,1.74,1.89,1.74c1.15,0,1.9-0.72,1.9-1.74
			C661.77,90.68,660.96,89.94,659.87,89.94z M666.54,90.52v6.98h-1.42V83.5h1.42v5.83h2.23v1.18H666.54z"/>
		<path class="st8" d="M670.46,94.79l-0.86-1.07c3.3-1.58,5.57-4.51,5.83-7.52h-5.2v-1.2h6.74
			C676.88,89.44,674.29,92.71,670.46,94.79z M679.63,97.49V83.5h1.42v13.99H679.63z"/>
	</g>
	<g>
		<path class="st8" d="M929.07,111.27c-2.07-0.78-4.83-2.94-6-5.4c-0.81,2.73-3.69,5.22-6.18,6.09l-2.13-2.79
			c3.9-1.38,6.48-4.56,6.48-8.58v-2.52h3.6v2.31c0,4.14,3.09,7.14,6.24,8.16L929.07,111.27z M927.39,123.6
			c-5.76,0-9.12-2.13-9.12-5.4c0-3.36,3.36-5.43,9.12-5.43c5.82,0,9.18,2.07,9.18,5.43C936.57,121.47,933.21,123.6,927.39,123.6z
			 M921.88,118.2c0,1.59,2.04,2.58,5.52,2.58c3.54,0,5.61-0.99,5.61-2.58c0-1.62-2.07-2.64-5.61-2.64
			C923.91,115.56,921.88,116.58,921.88,118.2z M936.27,106.11v6.39h-3.54V96.87h3.54v6.36h3.81v2.88H936.27z"/>
		<path class="st8" d="M956.16,107.07l0.45,2.7c-2.52,0.57-6.9,0.9-11.82,0.9h-2.61V98.61h11.91v2.79h-8.43v6.45
			C949.56,107.85,953.43,107.67,956.16,107.07z M944.88,123.27V113.1h17.31v10.17H944.88z M958.68,115.77h-10.29v4.74h10.29V115.77z
			 M962.19,105.93v5.76h-3.54V96.87h3.54v6.21H966v2.85H962.19z"/>
		<path class="st8" d="M967.14,106.02v-2.79h15.51v2.79H967.14z M974.91,106.95c3.84,0,6.45,2.4,6.45,5.76
			c0,3.27-2.61,5.76-6.45,5.76s-6.45-2.37-6.45-5.76C968.46,109.44,971.07,106.95,974.91,106.95z M970.89,98.61h8.25v2.76h-8.25
			V98.61z M974.91,115.62c1.95,0,3.03-1.17,3.03-2.91c0-1.77-1.29-2.94-3.03-2.94s-3.03,1.17-3.03,2.94
			C971.88,114.45,973.14,115.62,974.91,115.62z M988.17,107.7h3.72v2.91h-3.72v12.99h-3.54V96.87h3.54V107.7z"/>
		<path class="st8" d="M995.16,118.77l-2.16-2.64c5.85-2.67,9.84-8.25,10.32-13.56h-8.7v-2.91h12.48
			C1006.89,107.73,1003.32,114.33,995.16,118.77z M1011.81,123.6V96.87h3.51v26.73H1011.81z"/>
	</g>
	<g>
		<g>
			<rect x="373.6" y="166.15" class="st15" width="74.12" height="73.89"/>
			<path class="st1" d="M447.22,166.65v72.89H374.1v-72.89H447.22 M448.22,165.65H373.1v74.89h75.12V165.65L448.22,165.65z"/>
		</g>
		<g>
			<g>
				<line class="st2" x1="373.1" y1="176.13" x2="373.47" y2="176.13"/>
				<line class="st3" x1="374.22" y1="176.13" x2="447.46" y2="176.13"/>
				<line class="st2" x1="447.84" y1="176.13" x2="448.22" y2="176.13"/>
			</g>
		</g>
		<g>
			<g>
				<line class="st2" x1="373.1" y1="165.65" x2="373.47" y2="165.65"/>
				<line class="st3" x1="374.22" y1="165.65" x2="447.46" y2="165.65"/>
				<line class="st2" x1="447.84" y1="165.65" x2="448.22" y2="165.65"/>
			</g>
		</g>
		<g>
			<g>
				<line class="st2" x1="373.1" y1="230.18" x2="373.47" y2="230.18"/>
				<line class="st3" x1="374.22" y1="230.18" x2="447.46" y2="230.18"/>
				<line class="st2" x1="447.84" y1="230.18" x2="448.22" y2="230.18"/>
			</g>
		</g>
		<g>
			<g>
				<line class="st2" x1="382.62" y1="240.41" x2="382.62" y2="240.04"/>
				<line class="st4" x1="382.62" y1="239.29" x2="382.62" y2="166.4"/>
				<line class="st2" x1="382.62" y1="166.02" x2="382.62" y2="165.65"/>
			</g>
		</g>
		<g>
			<g>
				<line class="st2" x1="438.18" y1="240.41" x2="438.18" y2="240.04"/>
				<line class="st4" x1="438.18" y1="239.29" x2="438.18" y2="166.4"/>
				<line class="st2" x1="438.18" y1="166.02" x2="438.18" y2="165.65"/>
			</g>
		</g>
		<g>
			<g>
				<line class="st2" x1="373.1" y1="240.54" x2="373.47" y2="240.54"/>
				<line class="st3" x1="374.22" y1="240.54" x2="447.46" y2="240.54"/>
				<line class="st2" x1="447.84" y1="240.54" x2="448.22" y2="240.54"/>
			</g>
		</g>
		<line class="st5" x1="448.22" y1="240.54" x2="448.22" y2="165.65"/>
		<g>
			<g>
				<line class="st2" x1="373.1" y1="240.54" x2="373.1" y2="240.17"/>
				<line class="st6" x1="373.1" y1="239.42" x2="373.1" y2="166.4"/>
				<line class="st2" x1="373.1" y1="166.02" x2="373.1" y2="165.65"/>
			</g>
		</g>
	</g>
	<g>
		<path class="st8" d="M410.44,178.96c-14.6,0-26.44,9.35-26.44,20.89c0,7.42,4.9,13.93,12.27,17.64l-2.49,9.31
			c-0.09,0.28-0.02,0.58,0.18,0.78c0.15,0.15,0.34,0.22,0.54,0.22c0.17,0,0.33-0.05,0.47-0.16l10.72-7.24
			c1.54,0.22,3.13,0.34,4.75,0.34c14.6,0,26.44-9.35,26.44-20.89C436.88,188.31,425.04,178.96,410.44,178.96z M397.09,205.38
			c0,0.82-0.48,1.32-1.27,1.32c-0.78,0-1.26-0.51-1.26-1.32v-9.19h-2.66c-0.83,0-1.13-0.62-1.13-1.15c0-0.56,0.4-1.15,1.13-1.15
			h7.85c0.74,0,1.13,0.59,1.13,1.15c0,0.53-0.3,1.15-1.13,1.15h-2.66V205.38z M409.33,206.7c-0.63,0-1.04-0.29-1.23-0.88l-0.55-1.73
			h-5.29l-0.57,1.71c-0.2,0.61-0.58,0.9-1.22,0.9c-0.7,0-1.24-0.51-1.24-1.17c0-0.26,0.08-0.46,0.12-0.56l3.67-9.73
			c0.26-0.71,0.9-1.47,1.88-1.47c0.87,0,1.55,0.54,1.88,1.47l3.56,9.71c0.11,0.3,0.14,0.55,0.14,0.65
			C410.48,206.22,409.98,206.7,409.33,206.7z M417.84,206.56h-4.71c-0.83,0-1.32-0.52-1.32-1.4V195.1c0-0.81,0.48-1.32,1.27-1.32
			c0.78,0,1.26,0.51,1.26,1.32v9.16h3.51c0.38,0,0.69,0.12,0.91,0.35c0.21,0.22,0.32,0.53,0.3,0.85
			C419.03,205.99,418.6,206.56,417.84,206.56z M428.32,206.7c-0.07,0-0.13,0-0.2-0.01c-0.47-0.05-0.73-0.34-1.22-1l-3.32-4.53
			l-0.91,0.93v3.41c0,0.69-0.54,1.21-1.26,1.21c-0.76,0-1.27-0.49-1.27-1.21v-10.47c0-0.72,0.53-1.25,1.27-1.25
			c0.76,0,1.26,0.5,1.26,1.25v4.05l4.46-4.64c0.2-0.2,0.52-0.46,1.01-0.46c0.61,0.02,1.23,0.42,1.21,1.17
			c0,0.35-0.21,0.58-0.62,1.03c-0.09,0.1-0.2,0.22-0.31,0.35l-3.04,3.07l3.6,4.72c0.37,0.49,0.68,0.89,0.61,1.4
			C429.48,206.63,428.59,206.7,428.32,206.7z"/>
		<path class="st8" d="M404.87,196.1l-1.91,5.76h3.86l-1.91-5.76C404.91,196.07,404.88,196.07,404.87,196.1z"/>
	</g>
	<g>
		<path class="st15" d="M410.44,273.96c-14.6,0-26.44,9.35-26.44,20.89c0,7.42,4.9,13.93,12.27,17.64l-2.49,9.31
			c-0.09,0.28-0.02,0.58,0.18,0.78c0.15,0.15,0.34,0.22,0.54,0.22c0.17,0,0.33-0.05,0.47-0.16l10.72-7.24
			c1.54,0.22,3.13,0.34,4.75,0.34c14.6,0,26.44-9.35,26.44-20.89C436.88,283.31,425.04,273.96,410.44,273.96z M397.09,300.38
			c0,0.82-0.48,1.32-1.27,1.32c-0.78,0-1.26-0.51-1.26-1.32v-9.19h-2.66c-0.83,0-1.13-0.62-1.13-1.15c0-0.56,0.4-1.15,1.13-1.15
			h7.85c0.74,0,1.13,0.59,1.13,1.15c0,0.53-0.3,1.15-1.13,1.15h-2.66V300.38z M409.33,301.7c-0.63,0-1.04-0.29-1.23-0.88l-0.55-1.73
			h-5.29l-0.57,1.71c-0.2,0.61-0.58,0.9-1.22,0.9c-0.7,0-1.24-0.51-1.24-1.17c0-0.26,0.08-0.46,0.12-0.56l3.67-9.73
			c0.26-0.71,0.9-1.47,1.88-1.47c0.87,0,1.55,0.54,1.88,1.47l3.56,9.71c0.11,0.3,0.14,0.55,0.14,0.65
			C410.48,301.22,409.98,301.7,409.33,301.7z M417.84,301.56h-4.71c-0.83,0-1.32-0.52-1.32-1.4V290.1c0-0.81,0.48-1.32,1.27-1.32
			c0.78,0,1.26,0.51,1.26,1.32v9.16h3.51c0.38,0,0.69,0.12,0.91,0.35c0.21,0.22,0.32,0.53,0.3,0.85
			C419.03,300.99,418.6,301.56,417.84,301.56z M428.32,301.7c-0.07,0-0.13,0-0.2-0.01c-0.47-0.05-0.73-0.34-1.22-1l-3.32-4.53
			l-0.91,0.93v3.41c0,0.69-0.54,1.21-1.26,1.21c-0.76,0-1.27-0.49-1.27-1.21v-10.47c0-0.72,0.53-1.25,1.27-1.25
			c0.76,0,1.26,0.5,1.26,1.25v4.05l4.46-4.64c0.2-0.2,0.52-0.46,1.01-0.46c0.61,0.02,1.23,0.42,1.21,1.17
			c0,0.35-0.21,0.58-0.62,1.03c-0.09,0.1-0.2,0.22-0.31,0.35l-3.04,3.07l3.6,4.72c0.37,0.49,0.68,0.89,0.61,1.4
			C429.48,301.63,428.59,301.7,428.32,301.7z"/>
		<path class="st15" d="M404.87,291.1l-1.91,5.76h3.86l-1.91-5.76C404.91,291.07,404.88,291.07,404.87,291.1z"/>
	</g>
	<g>
		<path class="st8" d="M881.98,89.28c-12.43,0-22.5,7.96-22.5,17.78c0,6.31,4.17,11.86,10.44,15.01l-2.12,7.92
			c-0.08,0.23-0.02,0.49,0.15,0.66c0.13,0.13,0.29,0.19,0.46,0.19c0.14,0,0.28-0.05,0.4-0.14l9.12-6.16
			c1.31,0.19,2.66,0.29,4.05,0.29c12.43,0,22.5-7.96,22.5-17.78C904.48,97.24,894.4,89.28,881.98,89.28z M870.62,111.76
			c0,0.69-0.41,1.13-1.08,1.13c-0.66,0-1.08-0.43-1.08-1.13v-7.82h-2.26c-0.71,0-0.96-0.53-0.96-0.98c0-0.48,0.34-0.98,0.96-0.98
			h6.68c0.63,0,0.96,0.51,0.96,0.98c0,0.45-0.25,0.98-0.96,0.98h-2.26V111.76z M881.03,112.89c-0.54,0-0.88-0.24-1.05-0.75
			l-0.47-1.47h-4.5l-0.48,1.46c-0.17,0.52-0.5,0.76-1.03,0.76c-0.59,0-1.06-0.44-1.06-1c0-0.22,0.07-0.39,0.1-0.47l3.12-8.28
			c0.22-0.61,0.76-1.25,1.6-1.25c0.74,0,1.32,0.46,1.6,1.25l3.03,8.26c0.1,0.26,0.12,0.47,0.12,0.55
			C882.02,112.48,881.58,112.89,881.03,112.89z M888.27,112.77h-4.01c-0.7,0-1.13-0.45-1.13-1.19v-8.56c0-0.69,0.41-1.12,1.08-1.12
			c0.66,0,1.08,0.43,1.08,1.12v7.79h2.98c0.32,0,0.59,0.1,0.77,0.3c0.18,0.19,0.27,0.45,0.25,0.72
			C889.29,112.28,888.92,112.77,888.27,112.77z M897.19,112.89c-0.06,0-0.11,0-0.17-0.01c-0.4-0.04-0.62-0.29-1.04-0.85l-2.83-3.85
			l-0.77,0.79v2.9c0,0.59-0.46,1.03-1.08,1.03c-0.64,0-1.08-0.41-1.08-1.03v-8.91c0-0.61,0.45-1.06,1.08-1.06
			c0.64,0,1.08,0.43,1.08,1.06v3.45l3.79-3.95c0.17-0.17,0.45-0.39,0.86-0.39c0.52,0.01,1.04,0.36,1.03,0.99
			c0,0.3-0.18,0.49-0.53,0.88c-0.08,0.09-0.17,0.19-0.26,0.29l-2.59,2.61l3.06,4.01c0.32,0.41,0.58,0.76,0.52,1.19
			C898.18,112.82,897.42,112.89,897.19,112.89z"/>
		<path class="st8" d="M877.24,103.86l-1.62,4.9h3.29l-1.62-4.9C877.28,103.84,877.25,103.84,877.24,103.86z"/>
	</g>
	<g>
		<path class="st8" d="M634.33,187.12c-14.6,0-26.44,9.35-26.44,20.89c0,7.42,4.9,13.93,12.27,17.64l-2.49,9.31
			c-0.09,0.28-0.02,0.58,0.18,0.78c0.15,0.15,0.34,0.22,0.54,0.22c0.17,0,0.33-0.05,0.47-0.16l10.72-7.24
			c1.54,0.22,3.13,0.34,4.75,0.34c14.6,0,26.44-9.35,26.44-20.89C660.78,196.47,648.94,187.12,634.33,187.12z"/>
		<path class="st8" d="M628.77,204.26l-1.91,5.76h3.86l-1.91-5.76C628.81,204.23,628.78,204.23,628.77,204.26z"/>
	</g>
	<g>
		<path class="st8" d="M15,2.99c-7.18,0-13,4.6-13,10.27c0,3.65,2.41,6.85,6.03,8.67l-1.23,4.58C6.76,26.65,6.8,26.8,6.9,26.9
			c0.07,0.07,0.17,0.11,0.26,0.11c0.08,0,0.16-0.03,0.23-0.08l5.27-3.56c0.76,0.11,1.54,0.17,2.34,0.17c7.18,0,13-4.6,13-10.27
			C28,7.59,22.18,2.99,15,2.99z"/>
	</g>
	<polygon class="st16" points="74.15,-49.13 74.15,-25.22 65.43,-25.22 56.88,-37.26 56.88,-25.22 48.15,-25.22 48.15,-49.13 
		56.88,-49.13 65.43,-36.61 65.43,-49.13 	"/>
	<g>
		<path class="st17" d="M276.87,135.87h-144c-6.6,0-12-5.4-12-12V-18.79c0-6.6,5.4-12,12-12h144c6.6,0,12,5.4,12,12v142.66
			C288.87,130.47,283.47,135.87,276.87,135.87z"/>
		<path class="st15" d="M237.34,30.12v16.06h25.43l-3.35,26.1h-22.09v64.25h-26.77V72.29h-21.42v-26.1h21.42V23.43
			c0-38.82,52.21-28.11,52.21-28.11v22.76h-13.39C234.66,18.07,237.34,30.12,237.34,30.12z"/>
	</g>
	<rect x="37.36" y="37.54" class="st15" width="30" height="30"/>
	<path class="st17" d="M95.05,8.59v2.93h4.64l-0.61,4.76h-4.03V28h-4.88V16.28h-3.91v-4.76h3.91V7.37c0-7.08,9.52-5.13,9.52-5.13
		V6.4h-2.44C94.57,6.4,95.05,8.59,95.05,8.59z"/>
</g>
</svg>
